<svg width="28" height="15" viewBox="0 0 28 15" fill="none" xmlns="http://www.w3.org/2000/svg">
<rect y="0.640625" width="27.6719" height="14" rx="3" fill="#CCCCCC"/>
<path d="M5.26 7.86062V5.72062H6.48C6.66 5.72062 6.83333 5.73396 7 5.76063C7.16667 5.78729 7.31333 5.84062 7.44 5.92062C7.56667 5.99396 7.66667 6.10062 7.74 6.24062C7.82 6.38062 7.86 6.56396 7.86 6.79062C7.86 7.01729 7.82 7.20062 7.74 7.34062C7.66667 7.48062 7.56667 7.59062 7.44 7.67062C7.31333 7.74396 7.16667 7.79396 7 7.82062C6.83333 7.84729 6.66 7.86062 6.48 7.86062H5.26ZM3.69 4.50062V11.6406H5.26V9.08062H6.91C7.35667 9.08062 7.73667 9.01729 8.05 8.89062C8.36333 8.75729 8.61667 8.58396 8.81 8.37062C9.01 8.15729 9.15333 7.91396 9.24 7.64062C9.33333 7.36062 9.38 7.07729 9.38 6.79062C9.38 6.49729 9.33333 6.21396 9.24 5.94062C9.15333 5.66729 9.01 5.42396 8.81 5.21062C8.61667 4.99729 8.36333 4.82729 8.05 4.70062C7.73667 4.56729 7.35667 4.50062 6.91 4.50062H3.69ZM11.9299 7.73062V5.72062H13.6499C14.0099 5.72062 14.2799 5.80062 14.4599 5.96062C14.6399 6.11396 14.7299 6.36396 14.7299 6.71062C14.7299 7.07062 14.6399 7.33062 14.4599 7.49062C14.2799 7.65062 14.0099 7.73062 13.6499 7.73062H11.9299ZM10.3599 4.50062V11.6406H11.9299V8.85062H13.4999C13.8933 8.85062 14.1766 8.93729 14.3499 9.11062C14.5233 9.28396 14.6366 9.55729 14.6899 9.93062C14.7299 10.2173 14.7599 10.5173 14.7799 10.8306C14.7999 11.144 14.8533 11.414 14.9399 11.6406H16.5099C16.4366 11.5406 16.3799 11.4206 16.3399 11.2806C16.3066 11.134 16.2799 10.9806 16.2599 10.8206C16.2466 10.6606 16.2366 10.504 16.2299 10.3506C16.2233 10.1973 16.2166 10.064 16.2099 9.95062C16.1966 9.77062 16.1699 9.59062 16.1299 9.41062C16.0966 9.23062 16.0399 9.06729 15.9599 8.92062C15.8799 8.76729 15.7766 8.63729 15.6499 8.53062C15.5233 8.41729 15.3633 8.33396 15.1699 8.28062V8.26062C15.5699 8.10062 15.8566 7.86729 16.0299 7.56062C16.2099 7.25396 16.2999 6.89062 16.2999 6.47062C16.2999 6.19729 16.2499 5.94396 16.1499 5.71062C16.0566 5.47062 15.9166 5.26062 15.7299 5.08062C15.5499 4.90062 15.3299 4.76062 15.0699 4.66062C14.8166 4.55396 14.5299 4.50062 14.2099 4.50062H10.3599ZM18.8367 8.10062C18.8367 7.78729 18.8701 7.48396 18.9367 7.19062C19.0101 6.89729 19.1234 6.63729 19.2767 6.41062C19.4301 6.17729 19.6301 5.99396 19.8767 5.86062C20.1234 5.72062 20.4234 5.65062 20.7767 5.65062C21.1301 5.65062 21.4301 5.72062 21.6767 5.86062C21.9234 5.99396 22.1234 6.17729 22.2767 6.41062C22.4301 6.63729 22.5401 6.89729 22.6067 7.19062C22.6801 7.48396 22.7167 7.78729 22.7167 8.10062C22.7167 8.40062 22.6801 8.69396 22.6067 8.98062C22.5401 9.26062 22.4301 9.51396 22.2767 9.74062C22.1234 9.96729 21.9234 10.1506 21.6767 10.2906C21.4301 10.424 21.1301 10.4906 20.7767 10.4906C20.4234 10.4906 20.1234 10.424 19.8767 10.2906C19.6301 10.1506 19.4301 9.96729 19.2767 9.74062C19.1234 9.51396 19.0101 9.26062 18.9367 8.98062C18.8701 8.69396 18.8367 8.40062 18.8367 8.10062ZM17.2667 8.10062C17.2667 8.62062 17.3467 9.10729 17.5067 9.56062C17.6667 10.0073 17.8967 10.3973 18.1967 10.7306C18.4967 11.064 18.8634 11.3273 19.2967 11.5206C19.7367 11.7073 20.2301 11.8006 20.7767 11.8006C21.3301 11.8006 21.8234 11.7073 22.2567 11.5206C22.6901 11.3273 23.0567 11.064 23.3567 10.7306C23.6567 10.3973 23.8867 10.0073 24.0467 9.56062C24.2067 9.10729 24.2867 8.62062 24.2867 8.10062C24.2867 7.56729 24.2067 7.07396 24.0467 6.62062C23.8867 6.16062 23.6567 5.76062 23.3567 5.42062C23.0567 5.08062 22.6901 4.81396 22.2567 4.62062C21.8234 4.42729 21.3301 4.33062 20.7767 4.33062C20.2301 4.33062 19.7367 4.42729 19.2967 4.62062C18.8634 4.81396 18.4967 5.08062 18.1967 5.42062C17.8967 5.76062 17.6667 6.16062 17.5067 6.62062C17.3467 7.07396 17.2667 7.56729 17.2667 8.10062Z" fill="white"/>
</svg>
